<mxfile host="app.diagrams.net" modified="2020-07-30T18:04:47.940Z" agent="5.0 (X11)" etag="QbaTXqv2icLovIgRT0nr" compressed="false" version="13.5.7" type="device">
  <diagram id="Rh_s17OjXxmGqSs0rtpV" name="Page-1">
    <mxGraphModel dx="1044" dy="636" grid="1" gridSize="10" guides="1" tooltips="1" connect="1" arrows="1" fold="1" page="1" pageScale="1" pageWidth="850" pageHeight="1100" math="0" shadow="0">
      <root>
        <mxCell id="0" />
        <mxCell id="1" parent="0" />
        <mxCell id="oIauVy45EMIZ6cCur1Zs-3" value="Working memory" style="pointerEvents=1;shadow=0;dashed=0;html=1;strokeColor=none;fillColor=#434445;aspect=fixed;labelPosition=center;verticalLabelPosition=bottom;verticalAlign=top;align=center;outlineConnect=0;shape=mxgraph.vvd.memory;" parent="1" vertex="1">
          <mxGeometry x="40" y="85" width="105.26" height="40" as="geometry" />
        </mxCell>
        <mxCell id="oIauVy45EMIZ6cCur1Zs-6" value="C&lt;sub&gt;1&lt;/sub&gt;" style="edgeStyle=orthogonalEdgeStyle;rounded=0;orthogonalLoop=1;jettySize=auto;html=1;" parent="1" source="oIauVy45EMIZ6cCur1Zs-4" target="oIauVy45EMIZ6cCur1Zs-7" edge="1">
          <mxGeometry x="-0.0435" relative="1" as="geometry">
            <mxPoint x="120.25999999999999" y="280" as="targetPoint" />
            <Array as="points">
              <mxPoint x="90.25999999999999" y="175" />
            </Array>
            <mxPoint as="offset" />
          </mxGeometry>
        </mxCell>
        <mxCell id="oIauVy45EMIZ6cCur1Zs-10" value="C&lt;sub&gt;2&lt;/sub&gt;" style="edgeStyle=orthogonalEdgeStyle;rounded=0;orthogonalLoop=1;jettySize=auto;html=1;" parent="1" source="oIauVy45EMIZ6cCur1Zs-4" target="oIauVy45EMIZ6cCur1Zs-8" edge="1">
          <mxGeometry relative="1" as="geometry" />
        </mxCell>
        <mxCell id="oIauVy45EMIZ6cCur1Zs-11" value="C&lt;sub&gt;3&lt;/sub&gt;" style="edgeStyle=orthogonalEdgeStyle;rounded=0;orthogonalLoop=1;jettySize=auto;html=1;" parent="1" source="oIauVy45EMIZ6cCur1Zs-4" target="oIauVy45EMIZ6cCur1Zs-9" edge="1">
          <mxGeometry relative="1" as="geometry">
            <Array as="points">
              <mxPoint x="265.26" y="175" />
            </Array>
          </mxGeometry>
        </mxCell>
        <mxCell id="oIauVy45EMIZ6cCur1Zs-4" value="Rule interpreter" style="strokeWidth=2;html=1;shape=mxgraph.flowchart.decision;whiteSpace=wrap;" parent="1" vertex="1">
          <mxGeometry x="130.26" y="125" width="100" height="100" as="geometry" />
        </mxCell>
        <mxCell id="oIauVy45EMIZ6cCur1Zs-13" style="edgeStyle=orthogonalEdgeStyle;rounded=0;orthogonalLoop=1;jettySize=auto;html=1;" parent="1" source="oIauVy45EMIZ6cCur1Zs-7" target="oIauVy45EMIZ6cCur1Zs-12" edge="1">
          <mxGeometry relative="1" as="geometry">
            <Array as="points">
              <mxPoint x="90.25999999999999" y="415" />
            </Array>
          </mxGeometry>
        </mxCell>
        <mxCell id="oIauVy45EMIZ6cCur1Zs-7" value="A&lt;sub&gt;1&lt;/sub&gt;" style="rounded=1;whiteSpace=wrap;html=1;absoluteArcSize=1;arcSize=14;strokeWidth=2;" parent="1" vertex="1">
          <mxGeometry x="60.25999999999999" y="270" width="70" height="60" as="geometry" />
        </mxCell>
        <mxCell id="oIauVy45EMIZ6cCur1Zs-14" style="edgeStyle=orthogonalEdgeStyle;rounded=0;orthogonalLoop=1;jettySize=auto;html=1;" parent="1" source="oIauVy45EMIZ6cCur1Zs-8" target="oIauVy45EMIZ6cCur1Zs-12" edge="1">
          <mxGeometry relative="1" as="geometry" />
        </mxCell>
        <mxCell id="oIauVy45EMIZ6cCur1Zs-8" value="A&lt;sub&gt;2&lt;/sub&gt;" style="rounded=1;whiteSpace=wrap;html=1;absoluteArcSize=1;arcSize=14;strokeWidth=2;" parent="1" vertex="1">
          <mxGeometry x="145.26" y="270" width="70" height="60" as="geometry" />
        </mxCell>
        <mxCell id="oIauVy45EMIZ6cCur1Zs-15" style="edgeStyle=orthogonalEdgeStyle;rounded=0;orthogonalLoop=1;jettySize=auto;html=1;" parent="1" source="oIauVy45EMIZ6cCur1Zs-9" target="oIauVy45EMIZ6cCur1Zs-12" edge="1">
          <mxGeometry relative="1" as="geometry">
            <Array as="points">
              <mxPoint x="265.26" y="415" />
            </Array>
          </mxGeometry>
        </mxCell>
        <mxCell id="oIauVy45EMIZ6cCur1Zs-9" value="A&lt;sub&gt;3&lt;/sub&gt;" style="rounded=1;whiteSpace=wrap;html=1;absoluteArcSize=1;arcSize=14;strokeWidth=2;" parent="1" vertex="1">
          <mxGeometry x="230.26" y="270" width="70" height="60" as="geometry" />
        </mxCell>
        <mxCell id="oIauVy45EMIZ6cCur1Zs-16" style="edgeStyle=orthogonalEdgeStyle;rounded=0;orthogonalLoop=1;jettySize=auto;html=1;" parent="1" source="oIauVy45EMIZ6cCur1Zs-12" target="oIauVy45EMIZ6cCur1Zs-17" edge="1">
          <mxGeometry relative="1" as="geometry">
            <mxPoint x="50.25999999999999" y="150" as="targetPoint" />
            <Array as="points">
              <mxPoint x="180.26" y="490" />
              <mxPoint x="330.26" y="490" />
              <mxPoint x="330.26" y="45" />
            </Array>
          </mxGeometry>
        </mxCell>
        <mxCell id="oIauVy45EMIZ6cCur1Zs-12" value="" style="verticalLabelPosition=bottom;verticalAlign=top;html=1;shape=mxgraph.flowchart.or;" parent="1" vertex="1">
          <mxGeometry x="145.26" y="380" width="70" height="70" as="geometry" />
        </mxCell>
        <mxCell id="oIauVy45EMIZ6cCur1Zs-18" style="edgeStyle=orthogonalEdgeStyle;rounded=0;orthogonalLoop=1;jettySize=auto;html=1;" parent="1" source="oIauVy45EMIZ6cCur1Zs-17" target="oIauVy45EMIZ6cCur1Zs-4" edge="1">
          <mxGeometry relative="1" as="geometry" />
        </mxCell>
        <mxCell id="oIauVy45EMIZ6cCur1Zs-17" value="Start" style="strokeWidth=2;html=1;shape=mxgraph.flowchart.start_2;whiteSpace=wrap;" parent="1" vertex="1">
          <mxGeometry x="145.26" y="10" width="70" height="70" as="geometry" />
        </mxCell>
      </root>
    </mxGraphModel>
  </diagram>
</mxfile>
